<?xml version="1.0" encoding="UTF-8"?>
<svg version="1.1" xmlns="http://www.w3.org/2000/svg" width="64" height="64">
<path d="M0 0 C1.67542976 0.28604898 3.34385343 0.61781233 5 1 C5.66 2.98 6.32 4.96 7 7 C9.64 7.33 12.28 7.66 15 8 C15.75 9.75 15.75 9.75 16 12 C15.360625 12.556875 14.72125 13.11375 14.0625 13.6875 C11.24633311 16.84502045 11.67478858 19.08460432 11.859375 23.171875 C11.90578125 23.77515625 11.9521875 24.3784375 12 25 C10.1171875 26.05859375 10.1171875 26.05859375 8 27 C6.66666667 26.33333333 5.33333333 25.66666667 4 25 C1.1192091 25.30008239 -1.48314644 25.84207252 -4.25 26.6875 C-4.8275 26.790625 -5.405 26.89375 -6 27 C-8 25 -8 25 -8.0546875 22.9765625 C-7.96574219 21.81253906 -7.96574219 21.81253906 -7.875 20.625 C-7.69713628 16.76122274 -7.69713628 16.76122274 -10.0625 13.6875 C-10.701875 13.130625 -11.34125 12.57375 -12 12 C-11.75 9.75 -11.75 9.75 -11 8 C-8.36 7.67 -5.72 7.34 -3 7 C-2.690625 6.030625 -2.38125 5.06125 -2.0625 4.0625 C-1 1 -1 1 0 0 Z " fill="#FFCB00" transform="translate(30,17)"/>
<path d="M0 0 C1.65 0.33 3.3 0.66 5 1 C5.33 2.32 5.66 3.64 6 5 C8.97 5.495 8.97 5.495 12 6 C11.125 10.875 11.125 10.875 10 12 C9.63239269 14.32817964 9.29758419 16.6618385 9 19 C4.38 19 -0.24 19 -5 19 C-5 16.69 -5 14.38 -5 12 C-6.49985609 10.33289654 -6.49985609 10.33289654 -8 9 C-7.6875 6.8125 -7.6875 6.8125 -7 5 C-5.824375 4.87625 -5.824375 4.87625 -4.625 4.75 C-1.85250896 4.27193661 -1.85250896 4.27193661 -0.6875 1.9375 C-0.460625 1.298125 -0.23375 0.65875 0 0 Z " fill="#FFCB00" transform="translate(51,28)"/>
<path d="M0 0 C1.32 0 2.64 0 4 0 C4.20625 0.61875 4.4125 1.2375 4.625 1.875 C6.54775888 4.84653645 8.66594527 5.13024659 12 6 C11.38722388 8.96175123 10.74627478 10.38058783 9 13 C9 14.98 9 16.96 9 19 C4.38 19 -0.24 19 -5 19 C-5.12375 17.88625 -5.2475 16.7725 -5.375 15.625 C-5.6465813 11.96896323 -5.6465813 11.96896323 -8 10 C-8 8.68 -8 7.36 -8 6 C-6.576875 5.9071875 -6.576875 5.9071875 -5.125 5.8125 C-4.09375 5.544375 -3.0625 5.27625 -2 5 C-0.54708727 2.53744315 -0.54708727 2.53744315 0 0 Z " fill="#FFCB00" transform="translate(9,28)"/>
</svg>
